<svg xmlns="http://www.w3.org/2000/svg" width="32" height="32" viewBox="0 0 32 32"><defs><style>.a{fill:#b0b0b0;}.b{fill:none;}</style></defs><g transform="translate(-54.432 1.837)"><rect class="a" width="1.5" height="25.094" transform="matrix(0.708, -0.706, 0.706, 0.708, 60.11, 6.222)"/><path class="a" d="M70.432,16.739a2.985,2.985,0,0,0,1.71-.537l-4.168-4.179a3,3,0,0,0,2.458,4.716Z"/><path class="a" d="M67.658,9.582a5,5,0,0,1,6.925,6.943l2.591,2.6a11.886,11.886,0,0,0,4.258-5.384,11.8,11.8,0,0,0-16-6.385Z"/><path class="a" d="M73.552,17.616a4.946,4.946,0,0,1-3.12,1.123,4.973,4.973,0,0,1-3.869-8.131l-2.493-2.5a11.878,11.878,0,0,0-4.638,5.63,11.8,11.8,0,0,0,16.416,6.179Z"/><path class="a" d="M70.432,10.739a2.984,2.984,0,0,0-1.31.311l3.995,4.005a2.982,2.982,0,0,0-2.685-4.316Z"/></g><rect class="b" width="32" height="32"/></svg>